<svg width="25" height="20" viewBox="0 0 25 20" fill="none" xmlns="http://www.w3.org/2000/svg">
<path d="M24.7095 0.542961H21.7485C21.7485 3.51716 20.6048 5.33352 17.4798 6.77155V0.542961H14.5001V7.86804C13.7663 8.09057 12.9684 8.3082 12.0991 8.52452H12.0971C11.4445 8.68317 10.8158 8.8493 10.2086 9.02313V0.542961H7.22898V10.029C2.64085 11.8679 0 14.6047 0 19.4756H2.96109C2.96109 16.5016 4.10428 14.6853 7.22898 13.247V19.4756H10.2086V12.1507C10.9428 11.9281 11.7408 11.71 12.6104 11.4936H12.6126C13.2647 11.3351 13.8933 11.1694 14.5001 10.9956V19.4756H17.4798V9.98988C22.0687 8.15082 24.7095 5.41405 24.7095 0.542961Z" fill="white"/>
</svg>
